<svg xmlns="http://www.w3.org/2000/svg" xmlns:xlink="http://www.w3.org/1999/xlink" xmlns:inkscape="http://www.inkscape.org/namespaces/inkscape" version="1.1" width="139.854" height="152.064" viewBox="0 0 139.854 152.064">
<text xml:space="preserve" transform="matrix(1 0 -0 1 .0000009536743 152.064)" font-size="9.9626" font-family="Computer Modern" font-style="italic"><tspan y="-139.595" x="14.263">&#x03c0;</tspan></text>
<text xml:space="preserve" transform="matrix(1 0 -0 1 .0000009536743 152.064)" font-size="6.9738" font-family="Computer Modern" font-style="italic"><tspan y="-143.21" x="20.3">s</tspan></text>
<text xml:space="preserve" transform="matrix(1 0 -0 1 .0000009536743 152.064)" font-size="6.9738" font-family="Computer Modern"><tspan y="-137.12201" x="19.942">3</tspan></text>
<text xml:space="preserve" transform="matrix(1 0 -0 1 0 152.064)" font-size="9.9626" font-family="Computer Modern" font-style="italic"><tspan y="-139.595" x="45.092">&#x03c0;</tspan></text>
<text xml:space="preserve" transform="matrix(1 0 -0 1 0 152.064)" font-size="6.9738" font-family="Computer Modern" font-style="italic"><tspan y="-143.21" x="51.128">s</tspan></text>
<text xml:space="preserve" transform="matrix(1 0 -0 1 0 152.064)" font-size="6.9738" font-family="Computer Modern"><tspan y="-137.12201" x="50.771">3</tspan></text>
<text xml:space="preserve" transform="matrix(1 0 -0 1 0 152.064)" font-size="9.9626" font-family="Computer Modern" font-style="italic"><tspan y="-139.595" x="75.921">&#x03c0;</tspan></text>
<text xml:space="preserve" transform="matrix(1 0 -0 1 0 152.064)" font-size="6.9738" font-family="Computer Modern" font-style="italic"><tspan y="-143.21" x="81.957">s</tspan></text>
<text xml:space="preserve" transform="matrix(1 0 -0 1 0 152.064)" font-size="6.9738" font-family="Computer Modern"><tspan y="-137.12201" x="81.6">3</tspan></text>
<text xml:space="preserve" transform="matrix(1 0 -0 1 0 152.064)" font-size="9.9626" font-family="Computer Modern"><tspan y="-139.59502" x="86.215999">(</tspan></text>
<text xml:space="preserve" transform="matrix(1 0 -0 1 0 152.064)" font-size="9.9626" font-family="Computer Modern" font-style="italic"><tspan y="-139.59502" x="90.091449">M</tspan></text>
<text xml:space="preserve" transform="matrix(1 0 -0 1 0 152.064)" font-size="6.9738" font-family="Computer Modern" font-style="italic"><tspan y="-138.10002" x="99.755">n</tspan></text>
<text xml:space="preserve" transform="matrix(1 0 -0 1 0 152.064)" font-size="9.9626" font-family="Computer Modern"><tspan y="-139.59502" x="105.17799">)</tspan></text>
<text xml:space="preserve" transform="matrix(1 0 -0 1 .0000038146974 152.064)" font-size="9.9626" font-family="Computer Modern" font-style="italic"><tspan y="-95.441" x="14.263">&#x03c0;</tspan></text>
<text xml:space="preserve" transform="matrix(1 0 -0 1 .0000038146974 152.064)" font-size="6.9738" font-family="Computer Modern" font-style="italic"><tspan y="-99.056" x="20.3">s</tspan></text>
<text xml:space="preserve" transform="matrix(1 0 -0 1 .0000038146974 152.064)" font-size="6.9738" font-family="Computer Modern"><tspan y="-92.968" x="19.942">2</tspan></text>
<text xml:space="preserve" transform="matrix(1 0 -0 1 .0010070801 152.064)" font-size="9.9626" font-family="Computer Modern" font-style="italic"><tspan y="-95.441" x="45.092">&#x03c0;</tspan></text>
<text xml:space="preserve" transform="matrix(1 0 -0 1 .0010070801 152.064)" font-size="6.9738" font-family="Computer Modern" font-style="italic"><tspan y="-99.056" x="51.128">s</tspan></text>
<text xml:space="preserve" transform="matrix(1 0 -0 1 .0010070801 152.064)" font-size="6.9738" font-family="Computer Modern"><tspan y="-92.968" x="50.771">2</tspan></text>
<text xml:space="preserve" transform="matrix(1 0 -0 1 .0010070801 152.064)" font-size="9.9626" font-family="Computer Modern" font-style="italic"><tspan y="-95.441" x="75.921">&#x03c0;</tspan></text>
<text xml:space="preserve" transform="matrix(1 0 -0 1 .0010070801 152.064)" font-size="6.9738" font-family="Computer Modern" font-style="italic"><tspan y="-99.056" x="81.957">s</tspan></text>
<text xml:space="preserve" transform="matrix(1 0 -0 1 .0010070801 152.064)" font-size="6.9738" font-family="Computer Modern"><tspan y="-92.968" x="81.6">2</tspan></text>
<text xml:space="preserve" transform="matrix(1 0 -0 1 .0010070801 152.064)" font-size="9.9626" font-family="Computer Modern"><tspan y="-95.441" x="86.215999">(</tspan></text>
<text xml:space="preserve" transform="matrix(1 0 -0 1 .0010070801 152.064)" font-size="9.9626" font-family="Computer Modern" font-style="italic"><tspan y="-95.441" x="90.091449">M</tspan></text>
<text xml:space="preserve" transform="matrix(1 0 -0 1 .0010070801 152.064)" font-size="6.9738" font-family="Computer Modern" font-style="italic"><tspan y="-93.946" x="99.755">n</tspan></text>
<text xml:space="preserve" transform="matrix(1 0 -0 1 .0010070801 152.064)" font-size="9.9626" font-family="Computer Modern"><tspan y="-95.441" x="105.17799">)</tspan></text>
<text xml:space="preserve" transform="matrix(1 0 -0 1 .0010108948 152.064)" font-size="9.9626" font-family="Computer Modern" font-style="italic"><tspan y="-51.287" x="14.263">&#x03c0;</tspan></text>
<text xml:space="preserve" transform="matrix(1 0 -0 1 .0010108948 152.064)" font-size="6.9738" font-family="Computer Modern" font-style="italic"><tspan y="-54.902" x="20.3">s</tspan></text>
<text xml:space="preserve" transform="matrix(1 0 -0 1 .0010108948 152.064)" font-size="6.9738" font-family="Computer Modern"><tspan y="-48.814" x="19.942">1</tspan></text>
<text xml:space="preserve" transform="matrix(1 0 -0 1 .0020141602 152.064)" font-size="9.9626" font-family="Computer Modern" font-style="italic"><tspan y="-51.287" x="45.092">&#x03c0;</tspan></text>
<text xml:space="preserve" transform="matrix(1 0 -0 1 .0020141602 152.064)" font-size="6.9738" font-family="Computer Modern" font-style="italic"><tspan y="-54.902" x="51.128">s</tspan></text>
<text xml:space="preserve" transform="matrix(1 0 -0 1 .0020141602 152.064)" font-size="6.9738" font-family="Computer Modern"><tspan y="-48.814" x="50.771">1</tspan></text>
<text xml:space="preserve" transform="matrix(1 0 -0 1 .0020141602 152.064)" font-size="9.9626" font-family="Computer Modern" font-style="italic"><tspan y="-51.287" x="75.921">&#x03c0;</tspan></text>
<text xml:space="preserve" transform="matrix(1 0 -0 1 .0020141602 152.064)" font-size="6.9738" font-family="Computer Modern" font-style="italic"><tspan y="-54.902" x="81.957">s</tspan></text>
<text xml:space="preserve" transform="matrix(1 0 -0 1 .0020141602 152.064)" font-size="6.9738" font-family="Computer Modern"><tspan y="-48.814" x="81.6">1</tspan></text>
<text xml:space="preserve" transform="matrix(1 0 -0 1 .0020141602 152.064)" font-size="9.9626" font-family="Computer Modern"><tspan y="-51.287" x="86.215999">(</tspan></text>
<text xml:space="preserve" transform="matrix(1 0 -0 1 .0020141602 152.064)" font-size="9.9626" font-family="Computer Modern" font-style="italic"><tspan y="-51.287" x="90.091449">M</tspan></text>
<text xml:space="preserve" transform="matrix(1 0 -0 1 .0020141602 152.064)" font-size="6.9738" font-family="Computer Modern" font-style="italic"><tspan y="-49.792" x="99.755">n</tspan></text>
<text xml:space="preserve" transform="matrix(1 0 -0 1 .0020141602 152.064)" font-size="9.9626" font-family="Computer Modern"><tspan y="-51.287" x="105.17799">)</tspan></text>
<text xml:space="preserve" transform="matrix(1 0 -0 1 .0020179749 152.064)" font-size="9.9626" font-family="Computer Modern" font-style="italic"><tspan y="-7.133" x="14.263">&#x03c0;</tspan></text>
<text xml:space="preserve" transform="matrix(1 0 -0 1 .0020179749 152.064)" font-size="6.9738" font-family="Computer Modern" font-style="italic"><tspan y="-10.748" x="20.3">s</tspan></text>
<text xml:space="preserve" transform="matrix(1 0 -0 1 .0020179749 152.064)" font-size="6.9738" font-family="Computer Modern"><tspan y="-4.6600005" x="19.942">0</tspan></text>
<text xml:space="preserve" transform="matrix(1 0 -0 1 .0030212403 152.064)" font-size="9.9626" font-family="Computer Modern" font-style="italic"><tspan y="-7.133" x="45.092">&#x03c0;</tspan></text>
<text xml:space="preserve" transform="matrix(1 0 -0 1 .0030212403 152.064)" font-size="6.9738" font-family="Computer Modern" font-style="italic"><tspan y="-10.748" x="51.128">s</tspan></text>
<text xml:space="preserve" transform="matrix(1 0 -0 1 .0030212403 152.064)" font-size="6.9738" font-family="Computer Modern"><tspan y="-4.6600005" x="50.771">0</tspan></text>
<text xml:space="preserve" transform="matrix(1 0 -0 1 .0030212403 152.064)" font-size="9.9626" font-family="Computer Modern" font-style="italic"><tspan y="-7.133" x="75.921">&#x03c0;</tspan></text>
<text xml:space="preserve" transform="matrix(1 0 -0 1 .0030212403 152.064)" font-size="6.9738" font-family="Computer Modern" font-style="italic"><tspan y="-10.748" x="81.957">s</tspan></text>
<text xml:space="preserve" transform="matrix(1 0 -0 1 .0030212403 152.064)" font-size="6.9738" font-family="Computer Modern"><tspan y="-4.6600005" x="81.6">0</tspan></text>
<text xml:space="preserve" transform="matrix(1 0 -0 1 .0030212403 152.064)" font-size="9.9626" font-family="Computer Modern"><tspan y="-7.1330006" x="86.215999">(</tspan></text>
<text xml:space="preserve" transform="matrix(1 0 -0 1 .0030212403 152.064)" font-size="9.9626" font-family="Computer Modern" font-style="italic"><tspan y="-7.1330006" x="90.091449">M</tspan></text>
<text xml:space="preserve" transform="matrix(1 0 -0 1 .0030212403 152.064)" font-size="6.9738" font-family="Computer Modern" font-style="italic"><tspan y="-5.6390006" x="99.755">n</tspan></text>
<text xml:space="preserve" transform="matrix(1 0 -0 1 .0030212403 152.064)" font-size="9.9626" font-family="Computer Modern"><tspan y="-7.1330006" x="105.17799">)</tspan></text>
<text xml:space="preserve" transform="matrix(1 0 -0 1 .0030059815 152.064)" font-size="9.9626" font-family="Computer Modern"><tspan y="-7.133" x="129.586">0</tspan></text>
<path transform="matrix(1,0,0,-1,74.415,76.21)" stroke-width=".39848" stroke-linecap="butt" stroke-miterlimit="10" stroke-linejoin="miter" fill="none" stroke="#000000" d="M-45.36945 66.23167H-34.21112"/>
<path transform="matrix(1,0,0,-1,40.40311,9.9783329)" stroke-width=".39848" stroke-linecap="round" stroke-linejoin="round" fill="none" stroke="#000000" d="M-2.07213 2.39091C-1.69356 .95633-.84995 .27893 0 0-.84995-.27893-1.69356-.95633-2.07213-2.39091"/>
<text xml:space="preserve" transform="matrix(1 0 -0 1 .0000019073487 152.064)" font-size="6.9738" font-family="Computer Modern" font-style="italic"><tspan y="-144.429" x="31.656">&#x00b7;</tspan></text>
<text xml:space="preserve" transform="matrix(1 0 -0 1 .0000019073487 152.064)" font-size="6.9738" font-family="Computer Modern"><tspan y="-144.429" x="34.02012">2</tspan></text>
<path transform="matrix(1,0,0,-1,74.415,76.21)" stroke-width=".39848" stroke-linecap="butt" stroke-miterlimit="10" stroke-linejoin="miter" fill="none" stroke="#000000" d="M-14.5402 66.23167H-3.38188"/>
<path transform="matrix(1,0,0,-1,71.23235,9.9783329)" stroke-width=".39848" stroke-linecap="round" stroke-linejoin="round" fill="none" stroke="#000000" d="M-2.07213 2.39091C-1.69356 .95633-.84995 .27893 0 0-.84995-.27893-1.69356-.95633-2.07213-2.39091"/>
<path transform="matrix(1,0,0,-1,74.415,76.21)" stroke-width=".39848" stroke-linecap="butt" stroke-miterlimit="10" stroke-linejoin="miter" fill="none" stroke="#000000" d="M39.12617 66.23167H43.7201C45.92104 66.23167 47.7052 64.44751 47.7052 62.24657V50.66626C47.7052 48.46532 45.92104 46.68115 43.7201 46.68115H22.05649C19.85555 46.68115 16.28722 46.68115 14.08627 46.68115H-69.2358C-71.43674 46.68115-73.2209 44.89699-73.2209 42.69604V26.06233C-73.2209 23.86139-71.43674 22.07722-69.2358 22.07722H-65.04034"/>
<path transform="matrix(1,0,0,-1,9.573891,54.13278)" stroke-width=".39848" stroke-linecap="round" stroke-linejoin="round" fill="none" stroke="#000000" d="M-2.07213 2.39091C-1.69356 .95633-.84995 .27893 0 0-.84995-.27893-1.69356-.95633-2.07213-2.39091"/>
<path transform="matrix(1,0,0,-1,74.415,76.21)" stroke-width=".39848" stroke-linecap="butt" stroke-miterlimit="10" stroke-linejoin="miter" fill="none" stroke="#000000" d="M-45.36945 22.07722H-34.21112"/>
<path transform="matrix(1,0,0,-1,40.40311,54.13278)" stroke-width=".39848" stroke-linecap="round" stroke-linejoin="round" fill="none" stroke="#000000" d="M-2.07213 2.39091C-1.69356 .95633-.84995 .27893 0 0-.84995-.27893-1.69356-.95633-2.07213-2.39091"/>
<text xml:space="preserve" transform="matrix(1 0 -0 1 .0000019073487 152.064)" font-size="6.9738" font-family="Computer Modern" font-style="italic"><tspan y="-100.275" x="31.656">&#x00b7;</tspan></text>
<text xml:space="preserve" transform="matrix(1 0 -0 1 .0000019073487 152.064)" font-size="6.9738" font-family="Computer Modern"><tspan y="-100.275" x="34.02012">2</tspan></text>
<path transform="matrix(1,0,0,-1,74.415,76.21)" stroke-width=".39848" stroke-linecap="butt" stroke-miterlimit="10" stroke-linejoin="miter" fill="none" stroke="#000000" d="M-14.5402 22.07722H-3.38188"/>
<path transform="matrix(1,0,0,-1,71.23235,54.13278)" stroke-width=".39848" stroke-linecap="round" stroke-linejoin="round" fill="none" stroke="#000000" d="M-2.07213 2.39091C-1.69356 .95633-.84995 .27893 0 0-.84995-.27893-1.69356-.95633-2.07213-2.39091"/>
<path transform="matrix(1,0,0,-1,74.415,76.21)" stroke-width=".39848" stroke-linecap="butt" stroke-miterlimit="10" stroke-linejoin="miter" fill="none" stroke="#000000" d="M39.12617 22.07722H43.7201C45.92104 22.07722 47.7052 20.29305 47.7052 18.09212V6.51181C47.7052 4.31087 45.92104 2.5267 43.7201 2.5267H22.05649C19.85555 2.5267 16.28722 2.5267 14.08627 2.5267H-69.2358C-71.43674 2.5267-73.2209 .74254-73.2209-1.45839V-18.09212C-73.2209-20.29305-71.43674-22.07722-69.2358-22.07722H-65.04034"/>
<path transform="matrix(1,0,0,-1,9.573891,98.28722)" stroke-width=".39848" stroke-linecap="round" stroke-linejoin="round" fill="none" stroke="#000000" d="M-2.07213 2.39091C-1.69356 .95633-.84995 .27893 0 0-.84995-.27893-1.69356-.95633-2.07213-2.39091"/>
<path transform="matrix(1,0,0,-1,74.415,76.21)" stroke-width=".39848" stroke-linecap="butt" stroke-miterlimit="10" stroke-linejoin="miter" fill="none" stroke="#000000" d="M-45.36945-22.07722H-34.21112"/>
<path transform="matrix(1,0,0,-1,40.40311,98.28722)" stroke-width=".39848" stroke-linecap="round" stroke-linejoin="round" fill="none" stroke="#000000" d="M-2.07213 2.39091C-1.69356 .95633-.84995 .27893 0 0-.84995-.27893-1.69356-.95633-2.07213-2.39091"/>
<text xml:space="preserve" transform="matrix(1 0 -0 1 .0000019073487 152.064)" font-size="6.9738" font-family="Computer Modern" font-style="italic"><tspan y="-56.121" x="31.656">&#x00b7;</tspan></text>
<text xml:space="preserve" transform="matrix(1 0 -0 1 .0000019073487 152.064)" font-size="6.9738" font-family="Computer Modern"><tspan y="-56.121" x="34.02012">2</tspan></text>
<path transform="matrix(1,0,0,-1,74.415,76.21)" stroke-width=".39848" stroke-linecap="butt" stroke-miterlimit="10" stroke-linejoin="miter" fill="none" stroke="#000000" d="M-14.5402-22.07722H-3.38188"/>
<path transform="matrix(1,0,0,-1,71.23235,98.28722)" stroke-width=".39848" stroke-linecap="round" stroke-linejoin="round" fill="none" stroke="#000000" d="M-2.07213 2.39091C-1.69356 .95633-.84995 .27893 0 0-.84995-.27893-1.69356-.95633-2.07213-2.39091"/>
<path transform="matrix(1,0,0,-1,74.415,76.21)" stroke-width=".39848" stroke-linecap="butt" stroke-miterlimit="10" stroke-linejoin="miter" fill="none" stroke="#000000" d="M39.12617-22.07722H43.7201C45.92104-22.07722 47.7052-23.86139 47.7052-26.06233V-37.64262C47.7052-39.84357 45.92104-41.62773 43.7201-41.62773H22.05649C19.85555-41.62773 16.28722-41.62773 14.08627-41.62773H-69.2358C-71.43674-41.62773-73.2209-43.4119-73.2209-45.61284V-62.24657C-73.2209-64.44751-71.43674-66.23167-69.2358-66.23167H-65.04034"/>
<path transform="matrix(1,0,0,-1,9.573891,142.44167)" stroke-width=".39848" stroke-linecap="round" stroke-linejoin="round" fill="none" stroke="#000000" d="M-2.07213 2.39091C-1.69356 .95633-.84995 .27893 0 0-.84995-.27893-1.69356-.95633-2.07213-2.39091"/>
<path transform="matrix(1,0,0,-1,74.415,76.21)" stroke-width=".39848" stroke-linecap="butt" stroke-miterlimit="10" stroke-linejoin="miter" fill="none" stroke="#000000" d="M-45.36945-66.23167H-34.21112"/>
<path transform="matrix(1,0,0,-1,40.40311,142.44167)" stroke-width=".39848" stroke-linecap="round" stroke-linejoin="round" fill="none" stroke="#000000" d="M-2.07213 2.39091C-1.69356 .95633-.84995 .27893 0 0-.84995-.27893-1.69356-.95633-2.07213-2.39091"/>
<text xml:space="preserve" transform="matrix(1 0 -0 1 .0000019073487 152.06401)" font-size="6.9738" font-family="Computer Modern" font-style="italic"><tspan y="-11.968" x="31.656">&#x00b7;</tspan></text>
<text xml:space="preserve" transform="matrix(1 0 -0 1 .0000019073487 152.06401)" font-size="6.9738" font-family="Computer Modern"><tspan y="-11.968" x="34.02012">2</tspan></text>
<path transform="matrix(1,0,0,-1,74.415,76.21)" stroke-width=".39848" stroke-linecap="butt" stroke-miterlimit="10" stroke-linejoin="miter" fill="none" stroke="#000000" d="M-14.5402-66.23167H-3.38188"/>
<path transform="matrix(1,0,0,-1,71.23235,142.44167)" stroke-width=".39848" stroke-linecap="round" stroke-linejoin="round" fill="none" stroke="#000000" d="M-2.07213 2.39091C-1.69356 .95633-.84995 .27893 0 0-.84995-.27893-1.69356-.95633-2.07213-2.39091"/>
<path transform="matrix(1,0,0,-1,74.415,76.21)" stroke-width=".39848" stroke-linecap="butt" stroke-miterlimit="10" stroke-linejoin="miter" fill="none" stroke="#000000" d="M39.12617-66.23167H50.2845"/>
<path transform="matrix(1,0,0,-1,124.89873,142.44167)" stroke-width=".39848" stroke-linecap="round" stroke-linejoin="round" fill="none" stroke="#000000" d="M-2.07213 2.39091C-1.69356 .95633-.84995 .27893 0 0-.84995-.27893-1.69356-.95633-2.07213-2.39091"/>
</svg>
