<svg xmlns="http://www.w3.org/2000/svg" xmlns:xlink="http://www.w3.org/1999/xlink" xmlns:inkscape="http://www.inkscape.org/namespaces/inkscape" version="1.1" width="141.486" height="152.064" viewBox="0 0 141.486 152.064">
<text xml:space="preserve" transform="matrix(1 0 -0 1 .0000009536743 152.064)" font-size="9.9626" font-family="Euler"><tspan y="-139.595" x="14.263">Z</tspan></text>
<text xml:space="preserve" transform="matrix(1 0 -0 1 .0000009536743 152.064)" font-size="6.9738" font-family="Computer Modern"><tspan y="-138.1" x="20.904999">8</tspan></text>
<text xml:space="preserve" transform="matrix(1 0 -0 1 0 152.064)" font-size="9.9626" font-family="Euler"><tspan y="-139.595" x="45.908">Z</tspan></text>
<text xml:space="preserve" transform="matrix(1 0 -0 1 0 152.064)" font-size="6.9738" font-family="Computer Modern"><tspan y="-138.1" x="52.550004">8</tspan></text>
<text xml:space="preserve" transform="matrix(1 0 -0 1 0 152.064)" font-size="9.9626" font-family="Computer Modern" font-style="italic"><tspan y="-139.595" x="77.554">&#x03c0;</tspan></text>
<text xml:space="preserve" transform="matrix(1 0 -0 1 0 152.064)" font-size="6.9738" font-family="Computer Modern" font-style="italic"><tspan y="-143.21" x="83.590007">s</tspan></text>
<text xml:space="preserve" transform="matrix(1 0 -0 1 0 152.064)" font-size="6.9738" font-family="Computer Modern"><tspan y="-137.12201" x="83.232">3</tspan></text>
<text xml:space="preserve" transform="matrix(1 0 -0 1 0 152.064)" font-size="9.9626" font-family="Computer Modern"><tspan y="-139.59502" x="87.848">(</tspan></text>
<text xml:space="preserve" transform="matrix(1 0 -0 1 0 152.064)" font-size="9.9626" font-family="Computer Modern" font-style="italic"><tspan y="-139.59502" x="91.72345">M</tspan></text>
<text xml:space="preserve" transform="matrix(1 0 -0 1 0 152.064)" font-size="6.9738" font-family="Computer Modern" font-style="italic"><tspan y="-138.10002" x="101.388">n</tspan></text>
<text xml:space="preserve" transform="matrix(1 0 -0 1 0 152.064)" font-size="9.9626" font-family="Computer Modern"><tspan y="-139.59502" x="106.811">)</tspan></text>
<text xml:space="preserve" transform="matrix(1 0 -0 1 .0000009536743 152.064)" font-size="9.9626" font-family="Euler"><tspan y="-95.441" x="14.263">Z</tspan></text>
<text xml:space="preserve" transform="matrix(1 0 -0 1 .0000009536743 152.064)" font-size="6.9738" font-family="Computer Modern"><tspan y="-93.946" x="20.904999">2</tspan></text>
<text xml:space="preserve" transform="matrix(1 0 -0 1 0 152.064)" font-size="9.9626" font-family="Euler"><tspan y="-95.441" x="45.908">Z</tspan></text>
<text xml:space="preserve" transform="matrix(1 0 -0 1 0 152.064)" font-size="6.9738" font-family="Computer Modern"><tspan y="-93.946" x="52.550004">2</tspan></text>
<text xml:space="preserve" transform="matrix(1 0 -0 1 0 152.064)" font-size="9.9626" font-family="Computer Modern" font-style="italic"><tspan y="-95.441" x="77.553">&#x03c0;</tspan></text>
<text xml:space="preserve" transform="matrix(1 0 -0 1 0 152.064)" font-size="6.9738" font-family="Computer Modern" font-style="italic"><tspan y="-99.056" x="83.590007">s</tspan></text>
<text xml:space="preserve" transform="matrix(1 0 -0 1 0 152.064)" font-size="6.9738" font-family="Computer Modern"><tspan y="-92.968" x="83.232">2</tspan></text>
<text xml:space="preserve" transform="matrix(1 0 -0 1 0 152.064)" font-size="9.9626" font-family="Computer Modern"><tspan y="-95.441" x="87.848">(</tspan></text>
<text xml:space="preserve" transform="matrix(1 0 -0 1 0 152.064)" font-size="9.9626" font-family="Computer Modern" font-style="italic"><tspan y="-95.441" x="91.72345">M</tspan></text>
<text xml:space="preserve" transform="matrix(1 0 -0 1 0 152.064)" font-size="6.9738" font-family="Computer Modern" font-style="italic"><tspan y="-93.946" x="101.388">n</tspan></text>
<text xml:space="preserve" transform="matrix(1 0 -0 1 0 152.064)" font-size="9.9626" font-family="Computer Modern"><tspan y="-95.441" x="106.811">)</tspan></text>
<text xml:space="preserve" transform="matrix(1 0 -0 1 .0000009536743 152.064)" font-size="9.9626" font-family="Euler"><tspan y="-51.287" x="14.263">Z</tspan></text>
<text xml:space="preserve" transform="matrix(1 0 -0 1 .0000009536743 152.064)" font-size="6.9738" font-family="Computer Modern"><tspan y="-49.793" x="20.904999">2</tspan></text>
<text xml:space="preserve" transform="matrix(1 0 -0 1 0 152.064)" font-size="9.9626" font-family="Euler"><tspan y="-51.287" x="45.908">Z</tspan></text>
<text xml:space="preserve" transform="matrix(1 0 -0 1 0 152.064)" font-size="6.9738" font-family="Computer Modern"><tspan y="-49.793" x="52.550004">2</tspan></text>
<text xml:space="preserve" transform="matrix(1 0 -0 1 0 152.064)" font-size="9.9626" font-family="Computer Modern" font-style="italic"><tspan y="-51.287" x="77.553">&#x03c0;</tspan></text>
<text xml:space="preserve" transform="matrix(1 0 -0 1 0 152.064)" font-size="6.9738" font-family="Computer Modern" font-style="italic"><tspan y="-54.902" x="83.590007">s</tspan></text>
<text xml:space="preserve" transform="matrix(1 0 -0 1 0 152.064)" font-size="6.9738" font-family="Computer Modern"><tspan y="-48.814" x="83.232">1</tspan></text>
<text xml:space="preserve" transform="matrix(1 0 -0 1 0 152.064)" font-size="9.9626" font-family="Computer Modern"><tspan y="-51.287" x="87.848">(</tspan></text>
<text xml:space="preserve" transform="matrix(1 0 -0 1 0 152.064)" font-size="9.9626" font-family="Computer Modern" font-style="italic"><tspan y="-51.287" x="91.72345">M</tspan></text>
<text xml:space="preserve" transform="matrix(1 0 -0 1 0 152.064)" font-size="6.9738" font-family="Computer Modern" font-style="italic"><tspan y="-49.792" x="101.388">n</tspan></text>
<text xml:space="preserve" transform="matrix(1 0 -0 1 0 152.064)" font-size="9.9626" font-family="Computer Modern"><tspan y="-51.287" x="106.811">)</tspan></text>
<text xml:space="preserve" transform="matrix(1 0 -0 1 .0000019073487 152.064)" font-size="9.9626" font-family="Euler"><tspan y="-7.133" x="16.498">Z</tspan></text>
<text xml:space="preserve" transform="matrix(1 0 -0 1 0 152.064)" font-size="9.9626" font-family="Euler"><tspan y="-7.133" x="48.143">Z</tspan></text>
<text xml:space="preserve" transform="matrix(1 0 -0 1 0 152.064)" font-size="9.9626" font-family="Computer Modern" font-style="italic"><tspan y="-7.133" x="77.554">&#x03c0;</tspan></text>
<text xml:space="preserve" transform="matrix(1 0 -0 1 0 152.064)" font-size="6.9738" font-family="Computer Modern" font-style="italic"><tspan y="-10.748" x="83.590007">s</tspan></text>
<text xml:space="preserve" transform="matrix(1 0 -0 1 0 152.064)" font-size="6.9738" font-family="Computer Modern"><tspan y="-4.6600005" x="83.233">0</tspan></text>
<text xml:space="preserve" transform="matrix(1 0 -0 1 0 152.064)" font-size="9.9626" font-family="Computer Modern"><tspan y="-7.1330006" x="87.848">(</tspan></text>
<text xml:space="preserve" transform="matrix(1 0 -0 1 0 152.064)" font-size="9.9626" font-family="Computer Modern" font-style="italic"><tspan y="-7.1330006" x="91.72345">M</tspan></text>
<text xml:space="preserve" transform="matrix(1 0 -0 1 0 152.064)" font-size="6.9738" font-family="Computer Modern" font-style="italic"><tspan y="-5.6390006" x="101.388">n</tspan></text>
<text xml:space="preserve" transform="matrix(1 0 -0 1 0 152.064)" font-size="9.9626" font-family="Computer Modern"><tspan y="-7.1330006" x="106.811">)</tspan></text>
<text xml:space="preserve" transform="matrix(1 0 -0 1 .000015258789 152.064)" font-size="9.9626" font-family="Computer Modern"><tspan y="-7.133" x="131.219">0</tspan></text>
<path transform="matrix(1,0,0,-1,75.232,76.21)" stroke-width=".39848" stroke-linecap="butt" stroke-miterlimit="10" stroke-linejoin="miter" fill="none" stroke="#000000" d="M-45.36945 66.23167H-34.21112"/>
<path transform="matrix(1,0,0,-1,41.22011,9.9783329)" stroke-width=".39848" stroke-linecap="round" stroke-linejoin="round" fill="none" stroke="#000000" d="M-2.07213 2.39091C-1.69356 .95633-.84995 .27893 0 0-.84995-.27893-1.69356-.95633-2.07213-2.39091"/>
<text xml:space="preserve" transform="matrix(1 0 -0 1 .0000038146974 152.064)" font-size="6.9738" font-family="Computer Modern" font-style="italic"><tspan y="-144.429" x="32.473">&#x00b7;</tspan></text>
<text xml:space="preserve" transform="matrix(1 0 -0 1 .0000038146974 152.064)" font-size="6.9738" font-family="Computer Modern"><tspan y="-144.429" x="34.837118">2</tspan></text>
<path transform="matrix(1,0,0,-1,75.232,76.21)" stroke-width=".39848" stroke-linecap="butt" stroke-miterlimit="10" stroke-linejoin="miter" fill="none" stroke="#000000" d="M-13.72383 66.23167H-2.5655"/>
<path transform="matrix(1,0,0,-1,72.86573,9.9783329)" stroke-width=".39848" stroke-linecap="round" stroke-linejoin="round" fill="none" stroke="#000000" d="M-2.07213 2.39091C-1.69356 .95633-.84995 .27893 0 0-.84995-.27893-1.69356-.95633-2.07213-2.39091"/>
<path transform="matrix(1,0,0,-1,75.232,76.21)" stroke-width=".39848" stroke-linecap="butt" stroke-miterlimit="10" stroke-linejoin="miter" fill="none" stroke="#000000" d="M39.94255 66.23167H44.53647C46.73741 66.23167 48.52158 64.44751 48.52158 62.24657V50.66626C48.52158 48.46532 46.73741 46.68115 44.53647 46.68115H22.87286C20.67192 46.68115 17.10359 46.68115 14.90265 46.68115H-70.05217C-72.25311 46.68115-74.03728 44.89699-74.03728 42.69604V26.06233C-74.03728 23.86139-72.25311 22.07722-70.05217 22.07722H-65.85672"/>
<path transform="matrix(1,0,0,-1,9.574509,54.13278)" stroke-width=".39848" stroke-linecap="round" stroke-linejoin="round" fill="none" stroke="#000000" d="M-2.07213 2.39091C-1.69356 .95633-.84995 .27893 0 0-.84995-.27893-1.69356-.95633-2.07213-2.39091"/>
<path transform="matrix(1,0,0,-1,75.232,76.21)" stroke-width=".39848" stroke-linecap="butt" stroke-miterlimit="10" stroke-linejoin="miter" fill="none" stroke="#000000" d="M-45.36945 22.07722H-34.21112"/>
<path transform="matrix(1,0,0,-1,41.22011,54.13278)" stroke-width=".39848" stroke-linecap="round" stroke-linejoin="round" fill="none" stroke="#000000" d="M-2.07213 2.39091C-1.69356 .95633-.84995 .27893 0 0-.84995-.27893-1.69356-.95633-2.07213-2.39091"/>
<text xml:space="preserve" transform="matrix(1 0 -0 1 .0000038146974 152.064)" font-size="6.9738" font-family="Computer Modern" font-style="italic"><tspan y="-100.275" x="32.473">&#x00b7;</tspan></text>
<text xml:space="preserve" transform="matrix(1 0 -0 1 .0000038146974 152.064)" font-size="6.9738" font-family="Computer Modern"><tspan y="-100.275" x="34.837118">2</tspan></text>
<path transform="matrix(1,0,0,-1,75.232,76.21)" stroke-width=".39848" stroke-linecap="butt" stroke-miterlimit="10" stroke-linejoin="miter" fill="none" stroke="#000000" d="M-13.72383 22.07722H-2.5655"/>
<path transform="matrix(1,0,0,-1,72.86573,54.13278)" stroke-width=".39848" stroke-linecap="round" stroke-linejoin="round" fill="none" stroke="#000000" d="M-2.07213 2.39091C-1.69356 .95633-.84995 .27893 0 0-.84995-.27893-1.69356-.95633-2.07213-2.39091"/>
<path transform="matrix(1,0,0,-1,75.232,76.21)" stroke-width=".39848" stroke-linecap="butt" stroke-miterlimit="10" stroke-linejoin="miter" fill="none" stroke="#000000" d="M39.94255 22.07722H44.53647C46.73741 22.07722 48.52158 20.29305 48.52158 18.09212V6.51181C48.52158 4.31087 46.73741 2.5267 44.53647 2.5267H22.87286C20.67192 2.5267 17.10359 2.5267 14.90265 2.5267H-70.05217C-72.25311 2.5267-74.03728 .74254-74.03728-1.45839V-18.09212C-74.03728-20.29305-72.25311-22.07722-70.05217-22.07722H-65.85672"/>
<path transform="matrix(1,0,0,-1,9.574509,98.28722)" stroke-width=".39848" stroke-linecap="round" stroke-linejoin="round" fill="none" stroke="#000000" d="M-2.07213 2.39091C-1.69356 .95633-.84995 .27893 0 0-.84995-.27893-1.69356-.95633-2.07213-2.39091"/>
<path transform="matrix(1,0,0,-1,75.232,76.21)" stroke-width=".39848" stroke-linecap="butt" stroke-miterlimit="10" stroke-linejoin="miter" fill="none" stroke="#000000" d="M-45.36945-22.07722H-34.21112"/>
<path transform="matrix(1,0,0,-1,41.22011,98.28722)" stroke-width=".39848" stroke-linecap="round" stroke-linejoin="round" fill="none" stroke="#000000" d="M-2.07213 2.39091C-1.69356 .95633-.84995 .27893 0 0-.84995-.27893-1.69356-.95633-2.07213-2.39091"/>
<text xml:space="preserve" transform="matrix(1 0 -0 1 .0000038146974 152.064)" font-size="6.9738" font-family="Computer Modern" font-style="italic"><tspan y="-56.121" x="32.473">&#x00b7;</tspan></text>
<text xml:space="preserve" transform="matrix(1 0 -0 1 .0000038146974 152.064)" font-size="6.9738" font-family="Computer Modern"><tspan y="-56.121" x="34.837118">2</tspan></text>
<path transform="matrix(1,0,0,-1,75.232,76.21)" stroke-width=".39848" stroke-linecap="butt" stroke-miterlimit="10" stroke-linejoin="miter" fill="none" stroke="#000000" d="M-13.72383-22.07722H-2.5655"/>
<path transform="matrix(1,0,0,-1,72.86573,98.28722)" stroke-width=".39848" stroke-linecap="round" stroke-linejoin="round" fill="none" stroke="#000000" d="M-2.07213 2.39091C-1.69356 .95633-.84995 .27893 0 0-.84995-.27893-1.69356-.95633-2.07213-2.39091"/>
<text xml:space="preserve" transform="matrix(1 0 -0 1 .0000076293949 152.064)" font-size="6.9738" font-family="Computer Modern" font-style="italic"><tspan y="-58.302" x="64.173">&#x223c;</tspan></text>
<text xml:space="preserve" transform="matrix(1 0 -0 1 .0000076293949 152.064)" font-size="6.9738" font-family="Computer Modern"><tspan y="-56.121" x="64.229">=</tspan></text>
<path transform="matrix(1,0,0,-1,75.232,76.21)" stroke-width=".39848" stroke-linecap="butt" stroke-miterlimit="10" stroke-linejoin="miter" fill="none" stroke="#000000" d="M39.94255-22.07722H44.53647C46.73741-22.07722 48.52158-23.86139 48.52158-26.06233V-37.64262C48.52158-39.84357 46.73741-41.62773 44.53647-41.62773H22.87286C20.67192-41.62773 17.10359-41.62773 14.90265-41.62773H-67.81746C-70.0184-41.62773-71.80257-43.4119-71.80257-45.61284V-62.24657C-71.80257-64.44751-70.0184-66.23167-67.81746-66.23167H-63.62202"/>
<path transform="matrix(1,0,0,-1,11.809212,142.44167)" stroke-width=".39848" stroke-linecap="round" stroke-linejoin="round" fill="none" stroke="#000000" d="M-2.07213 2.39091C-1.69356 .95633-.84995 .27893 0 0-.84995-.27893-1.69356-.95633-2.07213-2.39091"/>
<text xml:space="preserve" transform="matrix(1 0 -0 1 .0000038146974 152.064)" font-size="9.9626" font-family="Computer Modern"><tspan y="-37.747" x="46.284">0</tspan></text>
<path transform="matrix(1,0,0,-1,75.232,76.21)" stroke-width=".39848" stroke-linecap="butt" stroke-miterlimit="10" stroke-linejoin="miter" fill="none" stroke="#000000" d="M-47.60416-66.23167H-31.97641"/>
<path transform="matrix(1,0,0,-1,43.454824,142.44167)" stroke-width=".39848" stroke-linecap="round" stroke-linejoin="round" fill="none" stroke="#000000" d="M-2.07213 2.39091C-1.69356 .95633-.84995 .27893 0 0-.84995-.27893-1.69356-.95633-2.07213-2.39091"/>
<text xml:space="preserve" transform="matrix(1 0 -0 1 .0000038146974 152.06401)" font-size="6.9738" font-family="Computer Modern" font-style="italic"><tspan y="-11.968" x="32.473">&#x00b7;</tspan></text>
<text xml:space="preserve" transform="matrix(1 0 -0 1 .0000038146974 152.06401)" font-size="6.9738" font-family="Computer Modern"><tspan y="-11.968" x="34.837118">2</tspan></text>
<path transform="matrix(1,0,0,-1,75.232,76.21)" stroke-width=".39848" stroke-linecap="butt" stroke-miterlimit="10" stroke-linejoin="miter" fill="none" stroke="#000000" d="M-15.95854-66.23167H-2.5655"/>
<path transform="matrix(1,0,0,-1,72.86573,142.44167)" stroke-width=".39848" stroke-linecap="round" stroke-linejoin="round" fill="none" stroke="#000000" d="M-2.07213 2.39091C-1.69356 .95633-.84995 .27893 0 0-.84995-.27893-1.69356-.95633-2.07213-2.39091"/>
<path transform="matrix(1,0,0,-1,75.232,76.21)" stroke-width=".39848" stroke-linecap="butt" stroke-miterlimit="10" stroke-linejoin="miter" fill="none" stroke="#000000" d="M39.94255-66.23167H51.10088"/>
<path transform="matrix(1,0,0,-1,126.53211,142.44167)" stroke-width=".39848" stroke-linecap="round" stroke-linejoin="round" fill="none" stroke="#000000" d="M-2.07213 2.39091C-1.69356 .95633-.84995 .27893 0 0-.84995-.27893-1.69356-.95633-2.07213-2.39091"/>
</svg>
