<svg xmlns="http://www.w3.org/2000/svg" xmlns:xlink="http://www.w3.org/1999/xlink" xmlns:inkscape="http://www.inkscape.org/namespaces/inkscape" version="1.1" width="87.187" height="51.918" viewBox="0 0 87.187 51.918">
<text xml:space="preserve" transform="matrix(1 0 -0 1 -.0000014305115 51.918)" font-size="9.9626" font-family="Computer Modern" font-style="italic"><tspan y="-40.468" x="6.344">X</tspan></text>
<text xml:space="preserve" transform="matrix(1 0 -0 1 -.0000076293949 51.918)" font-size="9.9626" font-family="Computer Modern" font-style="italic"><tspan y="-40.468" x="62.924">&#x2217;</tspan></text>
<text xml:space="preserve" transform="matrix(1 0 -0 1 -.0000042915346 51.918)" font-size="9.9626" font-family="Computer Modern" font-style="italic"><tspan y="-7.133" x="5.286">S</tspan></text>
<text xml:space="preserve" transform="matrix(1 0 -0 1 -.0000042915346 51.918)" font-size="6.9738" font-family="Computer Modern"><tspan y="-10.748" x="11.969">3</tspan></text>
<text xml:space="preserve" transform="matrix(1 0 -0 1 -.0000076293949 51.918)" font-size="9.9626" font-family="Computer Modern" font-style="italic"><tspan y="-7.133" x="48.928">K</tspan></text>
<text xml:space="preserve" transform="matrix(1 0 -0 1 -.0000076293949 51.918)" font-size="9.9626" font-family="Computer Modern"><tspan y="-7.133" x="58.093595">(</tspan></text>
<text xml:space="preserve" transform="matrix(1 0 -0 1 -.0000076293949 51.918)" font-size="9.9626" font-family="Euler"><tspan y="-7.133" x="61.969045">Z</tspan></text>
<text xml:space="preserve" transform="matrix(1 0 -0 1 -.0000076293949 51.918)" font-size="9.9626" font-family="Computer Modern" font-style="italic"><tspan y="-7.133" x="68.6141">,</tspan></text>
<text xml:space="preserve" transform="matrix(1 0 -0 1 -.0000076293949 51.918)" font-size="9.9626" font-family="Computer Modern"><tspan y="-7.133" x="73.047458 78.028759">3)</tspan></text>
<path transform="matrix(1,0,0,-1,43.593,25.959)" stroke-width=".39848" stroke-linecap="butt" stroke-miterlimit="10" stroke-linejoin="miter" fill="none" stroke="#000000" d="M-23.72522 16.99957H14.44325"/>
<path transform="matrix(1,0,0,-1,58.23549,8.959429)" stroke-width=".39848" stroke-linecap="round" stroke-linejoin="round" fill="none" stroke="#000000" d="M-2.07213 2.39091C-1.69356 .95633-.84995 .27893 0 0-.84995-.27893-1.69356-.95633-2.07213-2.39091"/>
<path transform="matrix(1,0,0,-1,43.593,25.959)" stroke-width=".39848" stroke-linecap="butt" stroke-miterlimit="10" stroke-linejoin="miter" fill="none" stroke="#000000" d="M-32.73181 10.66353V-6.4725"/>
<path transform="matrix(0,1,1,0,10.861187,32.63075)" stroke-width=".39848" stroke-linecap="round" stroke-linejoin="round" fill="none" stroke="#000000" d="M-2.07213 2.39091C-1.69356 .95633-.84995 .27893 0 0-.84995-.27893-1.69356-.95633-2.07213-2.39091"/>
<path transform="matrix(1,0,0,-1,43.593,25.959)" stroke-width=".39848" stroke-linecap="butt" stroke-miterlimit="10" stroke-linejoin="miter" fill="none" stroke="#000000" d="M21.82118 10.66353V-7.11014"/>
<path transform="matrix(0,1,1,0,65.41418,33.26837)" stroke-width=".39848" stroke-linecap="round" stroke-linejoin="round" fill="none" stroke="#000000" d="M-2.07213 2.39091C-1.69356 .95633-.84995 .27893 0 0-.84995-.27893-1.69356-.95633-2.07213-2.39091"/>
<path transform="matrix(1,0,0,-1,43.593,25.959)" stroke-width=".39848" stroke-linecap="butt" stroke-miterlimit="10" stroke-linejoin="miter" fill="none" stroke="#000000" d="M-22.66667-16.33536H.44695"/>
<path transform="matrix(1,0,0,-1,44.239179,42.294359)" stroke-width=".39848" stroke-linecap="round" stroke-linejoin="round" fill="none" stroke="#000000" d="M-2.07213 2.39091C-1.69356 .95633-.84995 .27893 0 0-.84995-.27893-1.69356-.95633-2.07213-2.39091"/>
<text xml:space="preserve" transform="matrix(1 0 -0 1 -.0000019073487 51.918004)" font-size="6.9738" font-family="Computer Modern" font-style="italic"><tspan y="-13.324" x="30.35">f</tspan></text>
</svg>
